<svg id="visual" viewBox="0 0 960 540" width="960" height="540" xmlns="http://www.w3.org/2000/svg" xmlns:xlink="http://www.w3.org/1999/xlink" version="1.1"><rect x="0" y="0" width="960" height="540" fill="#F5F5F5"></rect><g transform="translate(20.062492085764717 44.36744403970968)"><path d="M174.8 -263.4C224.5 -204.4 261.6 -150.7 297.4 -85.9C333.2 -21.1 367.7 54.8 341.1 102.8C314.5 150.9 226.7 171 159.6 200.4C92.6 229.8 46.3 268.4 -12 284.9C-70.3 301.5 -140.7 296 -195.2 262.5C-249.7 229.1 -288.4 167.7 -328.2 94.9C-367.9 22.2 -408.6 -61.9 -382.3 -118.5C-356 -175 -262.6 -204 -187.8 -254.8C-112.9 -305.7 -56.4 -378.3 3 -382.5C62.5 -386.7 125 -322.4 174.8 -263.4" fill="#E1533D"></path></g></svg>